<?xml version="1.0" standalone="no"?>
<!DOCTYPE svg PUBLIC "-//W3C//DTD SVG 20010904//EN"
 "http://www.w3.org/TR/2001/REC-SVG-20010904/DTD/svg10.dtd">
<svg version="1.0" xmlns="http://www.w3.org/2000/svg"
 width="16" height="16" viewBox="0 0 512.000000 512.000000"
 preserveAspectRatio="xMidYMid meet">

<g transform="translate(0.000000,512.000000) scale(0.100000,-0.100000)"
fill="#000000" stroke="none">
<!-- <path d="M2235 4785 c-1088 -132 -1915 -1064 -1915 -2156 0 -500 167 -976 480
-1369 86 -107 269 -286 380 -370 299 -227 654 -373 1035 -426 152 -21 502 -15
640 11 236 43 400 97 600 195 627 308 1054 874 1186 1575 31 160 38 486 14
661 -63 472 -267 892 -599 1233 -188 192 -358 316 -597 435 -374 187 -808 261
-1224 211z m420 -389 c231 -13 517 -103 737 -232 233 -137 452 -346 601 -575
122 -187 217 -429 259 -657 28 -155 30 -449 5 -592 -92 -506 -357 -918 -767
-1195 -465 -313 -1035 -387 -1575 -204 -376 127 -721 404 -936 749 -273 439
-336 988 -172 1494 44 138 152 352 240 476 86 121 291 325 413 412 194 138
451 249 690 298 105 22 299 39 375 34 22 -2 81 -6 130 -8z"/> -->
<path d="M1830 3199 c-87 -14 -190 -70 -251 -137 -99 -106 -141 -218 -153
-407 -21 -310 126 -539 386 -600 160 -38 398 -1 533 83 22 14 42 26 44 28 3 3
-66 173 -75 183 -1 2 -37 -11 -79 -28 -151 -63 -317 -63 -403 -1 -46 33 -89
114 -94 175 l-3 40 339 3 339 2 -6 143 c-6 158 -19 215 -67 306 -91 169 -279
247 -510 210z m200 -247 c44 -24 73 -81 78 -154 l4 -58 -187 0 -187 0 6 38
c12 68 58 145 101 169 51 29 136 31 185 5z"/>
<path d="M3117 3200 c-79 -20 -155 -70 -208 -136 l-27 -35 -7 68 c-3 37 -8 74
-10 81 -3 9 -41 12 -145 12 l-140 0 0 -565 0 -565 155 0 155 0 0 410 0 411 25
25 c63 63 204 86 272 44 68 -41 68 -41 71 -487 l3 -403 155 0 156 0 -5 418
c-4 452 -6 467 -63 572 -52 95 -148 150 -273 156 -42 2 -93 -1 -114 -6z"/>
</g>
</svg>
