<?xml version="1.0" standalone="no"?>
<!DOCTYPE svg PUBLIC "-//W3C//DTD SVG 20010904//EN"
 "http://www.w3.org/TR/2001/REC-SVG-20010904/DTD/svg10.dtd">
<svg version="1.0" xmlns="http://www.w3.org/2000/svg"
 width="16" height="16" viewBox="0 0 512.000000 512.000000"
 preserveAspectRatio="xMidYMid meet">

<g transform="translate(0.000000,512.000000) scale(0.100000,-0.100000)"
fill="#000000" stroke="none">
<!-- <path d="M2275 4665 c-517 -71 -957 -292 -1315 -662 -222 -228 -386 -487 -494
-777 -137 -366 -172 -814 -95 -1201 184 -919 920 -1625 1845 -1771 228 -35
535 -29 772 17 833 161 1520 813 1726 1638 53 209 60 280 60 546 0 193 -4 273
-17 350 -170 967 -886 1685 -1847 1851 -131 22 -501 28 -635 9z m456 -396
c314 -31 624 -147 879 -327 123 -86 346 -309 432 -432 369 -523 438 -1212 179
-1789 -385 -862 -1344 -1286 -2241 -991 -307 100 -599 297 -807 542 -455 535
-565 1277 -286 1916 315 718 1069 1160 1844 1081z"/> -->
<path d="M1960 3098 c-35 -14 -73 -39 -106 -73 l-53 -52 -8 61 -8 61 -142 3
-143 3 0 -801 0 -800 155 0 155 0 0 275 c0 151 2 275 4 275 2 0 19 -15 39 -33
61 -58 120 -80 229 -85 146 -6 226 25 321 127 56 60 103 155 123 250 18 86 18
316 0 401 -44 206 -144 340 -292 390 -79 27 -200 26 -274 -2z m145 -241 c47
-27 99 -120 115 -206 14 -75 12 -226 -3 -292 -32 -133 -93 -189 -207 -189 -77
0 -134 23 -173 69 l-27 33 0 246 c0 246 0 248 24 283 52 77 186 104 271 56z"/>
<path d="M2615 3083 c4 -10 96 -269 205 -577 l199 -558 -25 -62 c-50 -120 -96
-156 -198 -156 l-54 0 -11 -62 c-5 -35 -13 -86 -17 -114 l-6 -51 79 -13 c94
-14 189 -3 258 30 55 27 121 99 164 179 24 46 470 1282 498 1384 5 16 -7 17
-160 17 l-166 0 -19 -62 c-11 -35 -59 -193 -107 -353 -48 -159 -91 -296 -95
-304 -5 -9 -9 -5 -14 15 -3 16 -50 181 -103 367 l-98 337 -168 0 c-157 0 -169
-1 -162 -17z"/>
</g>
</svg>
